<svg width="49" height="48" viewBox="0 0 49 48" fill="none" xmlns="http://www.w3.org/2000/svg">
<path d="M0.5 24C0.5 10.7452 11.2452 0 24.5 0C37.7548 0 48.5 10.7452 48.5 24C48.5 37.2548 37.7548 48 24.5 48C11.2452 48 0.5 37.2548 0.5 24Z" fill="#F0F9FF"/>
<path d="M24.5 34C30.0228 34 34.5 29.5228 34.5 24C34.5 18.4772 30.0228 14 24.5 14C18.9772 14 14.5 18.4772 14.5 24C14.5 29.5228 18.9772 34 24.5 34Z" stroke="#0284C7" stroke-width="2" stroke-linecap="round" stroke-linejoin="round"/>
<path d="M21.5 24L23.5 26L27.5 22" stroke="#0284C7" stroke-width="2" stroke-linecap="round" stroke-linejoin="round"/>
</svg>
