<svg width="16" height="16" viewBox="0 0 16 16" fill="none" xmlns="http://www.w3.org/2000/svg">
<path d="M5.06682 9.23758C5.47183 9.23758 5.80016 8.90926 5.80016 8.50422C5.80016 8.09918 5.47183 7.77087 5.06682 7.77087C4.66182 7.77087 4.3335 8.09918 4.3335 8.50422C4.3335 8.90926 4.66182 9.23758 5.06682 9.23758Z" fill="#3D89FB"/>
<path d="M5.06682 12.1708C5.47183 12.1708 5.80016 11.8425 5.80016 11.4375C5.80016 11.0324 5.47183 10.7041 5.06682 10.7041C4.66182 10.7041 4.3335 11.0324 4.3335 11.4375C4.3335 11.8425 4.66182 12.1708 5.06682 12.1708Z" fill="#3D89FB"/>
<path d="M11.6668 8.50422C11.6668 8.90926 11.3385 9.23758 10.9336 9.23758C10.5285 9.23758 10.2002 8.90926 10.2002 8.50422C10.2002 8.09918 10.5285 7.77087 10.9336 7.77087C11.3385 7.77087 11.6668 8.09918 11.6668 8.50422Z" fill="#3D89FB"/>
<path d="M10.9336 12.1708C11.3385 12.1708 11.6668 11.8425 11.6668 11.4375C11.6668 11.0324 11.3385 10.7041 10.9336 10.7041C10.5285 10.7041 10.2002 11.0324 10.2002 11.4375C10.2002 11.8425 10.5285 12.1708 10.9336 12.1708Z" fill="#3D89FB"/>
<path d="M8.73327 8.50422C8.73327 8.90926 8.40495 9.23758 7.99991 9.23758C7.59493 9.23758 7.2666 8.90926 7.2666 8.50422C7.2666 8.09918 7.59493 7.77087 7.99991 7.77087C8.40495 7.77087 8.73327 8.09918 8.73327 8.50422Z" fill="#3D89FB"/>
<path d="M7.99991 12.1708C8.40495 12.1708 8.73327 11.8425 8.73327 11.4375C8.73327 11.0324 8.40495 10.7041 7.99991 10.7041C7.59493 10.7041 7.2666 11.0324 7.2666 11.4375C7.2666 11.8425 7.59493 12.1708 7.99991 12.1708Z" fill="#3D89FB"/>
<path fill-rule="evenodd" clip-rule="evenodd" d="M5.0665 0.799988C5.39788 0.799988 5.6665 1.06862 5.6665 1.39999V1.55046C6.22568 1.53338 6.86544 1.53338 7.60043 1.53339H8.39916C9.1342 1.53338 9.77396 1.53338 10.3331 1.55046V1.39999C10.3331 1.06862 10.6017 0.799988 10.9331 0.799988C11.2644 0.799988 11.5331 1.06862 11.5331 1.39999V1.63359C12.208 1.7186 12.7772 1.88077 13.2821 2.20764C13.7797 2.52973 14.2035 2.95348 14.5256 3.45103C14.8878 4.01069 15.0478 4.64934 15.1246 5.42321C15.1998 6.18063 15.1998 7.12945 15.1998 8.33407V8.39943C15.1998 9.60399 15.1998 10.5528 15.1246 11.3102C15.0478 12.0841 14.8878 12.7228 14.5256 13.2824C14.2035 13.78 13.7797 14.2037 13.2821 14.5258C12.7225 14.8881 12.0839 15.0481 11.31 15.1249C10.5526 15.2001 9.6038 15.2001 8.39924 15.2001H7.60039C6.39584 15.2001 5.44704 15.2001 4.68963 15.1249C3.91576 15.0481 3.27711 14.8881 2.71744 14.5258C2.21989 14.2037 1.79615 13.78 1.47407 13.2824C1.11177 12.7228 0.951805 12.0841 0.874981 11.3102C0.799794 10.5528 0.799799 9.60399 0.799805 8.39943V8.33399C0.799799 7.12944 0.799794 6.18063 0.874981 5.42321C0.951805 4.64934 1.11177 4.01069 1.47407 3.45103C1.79615 2.95348 2.21989 2.52973 2.71744 2.20764C3.2224 1.88077 3.79165 1.7186 4.4665 1.63359V1.39999C4.4665 1.06862 4.73513 0.799988 5.0665 0.799988ZM10.3331 2.75096V2.86665C10.3331 3.19803 10.6017 3.46665 10.9331 3.46665C11.2644 3.46665 11.5331 3.19803 11.5331 2.86665V2.84499C12.0216 2.91923 12.3564 3.03789 12.63 3.215C12.9855 3.44506 13.2881 3.74774 13.5182 4.10313C13.6832 4.35802 13.7975 4.66605 13.8724 5.10202C13.6333 5.07598 13.3424 5.04736 12.9996 5.0188C11.8831 4.92575 10.2165 4.83339 7.9998 4.83339C5.78312 4.83339 4.11649 4.92575 2.99997 5.0188C2.65721 5.04736 2.36631 5.07598 2.12726 5.10202C2.20214 4.66605 2.31642 4.35802 2.48142 4.10313C2.71148 3.74774 3.01416 3.44506 3.36955 3.215C3.64314 3.03789 3.97796 2.91923 4.4665 2.84499V2.86665C4.4665 3.19803 4.73513 3.46665 5.0665 3.46665C5.39788 3.46665 5.6665 3.19803 5.6665 2.86665V2.75096C6.20749 2.73366 6.84999 2.73339 7.63314 2.73339H8.36644C9.14964 2.73339 9.79212 2.73366 10.3331 2.75096ZM13.9796 6.32191C13.718 6.29089 13.3581 6.25283 12.9 6.21464C11.8165 6.12436 10.1831 6.03339 7.9998 6.03339C5.81649 6.03339 4.18312 6.12436 3.09963 6.21464C2.64145 6.25283 2.28158 6.29089 2.02003 6.32191C2.00011 6.87894 1.9998 7.5455 1.9998 8.36671C1.9998 9.61119 2.00049 10.5005 2.06911 11.1917C2.13677 11.8733 2.26577 12.2972 2.48142 12.6303C2.71148 12.9857 3.01416 13.2884 3.36955 13.5185C3.70267 13.7341 4.12656 13.8631 4.80817 13.9307C5.4994 13.9993 6.38869 14.0001 7.63314 14.0001H8.36644C9.61092 14.0001 10.5002 13.9993 11.1914 13.9307C11.8731 13.8631 12.2969 13.7341 12.63 13.5185C12.9855 13.2884 13.2881 12.9857 13.5182 12.6303C13.7338 12.2972 13.8628 11.8733 13.9305 11.1917C13.9991 10.5005 13.9998 9.61119 13.9998 8.36671C13.9998 7.5455 13.9995 6.87894 13.9796 6.32191Z" fill="#3D89FB"/>
</svg>
