<svg width="25" height="24" viewBox="0 0 25 24" fill="none" xmlns="http://www.w3.org/2000/svg">
<path d="M0.65625 0H24.6562V24H0.65625V0Z" stroke="#E2E8F0"/>
<path d="M9.65625 3H4.65625C4.10397 3 3.65625 3.44772 3.65625 4V11C3.65625 11.5523 4.10397 12 4.65625 12H9.65625C10.2085 12 10.6562 11.5523 10.6562 11V4C10.6562 3.44772 10.2085 3 9.65625 3Z" stroke="#A855F7" stroke-width="2" stroke-linecap="round" stroke-linejoin="round"/>
<path d="M20.6562 3H15.6562C15.104 3 14.6562 3.44772 14.6562 4V7C14.6562 7.55228 15.104 8 15.6562 8H20.6562C21.2085 8 21.6562 7.55228 21.6562 7V4C21.6562 3.44772 21.2085 3 20.6562 3Z" stroke="#A855F7" stroke-width="2" stroke-linecap="round" stroke-linejoin="round"/>
<path d="M20.6562 12H15.6562C15.104 12 14.6562 12.4477 14.6562 13V20C14.6562 20.5523 15.104 21 15.6562 21H20.6562C21.2085 21 21.6562 20.5523 21.6562 20V13C21.6562 12.4477 21.2085 12 20.6562 12Z" stroke="#A855F7" stroke-width="2" stroke-linecap="round" stroke-linejoin="round"/>
<path d="M9.65625 16H4.65625C4.10397 16 3.65625 16.4477 3.65625 17V20C3.65625 20.5523 4.10397 21 4.65625 21H9.65625C10.2085 21 10.6562 20.5523 10.6562 20V17C10.6562 16.4477 10.2085 16 9.65625 16Z" stroke="#A855F7" stroke-width="2" stroke-linecap="round" stroke-linejoin="round"/>
</svg>
