<svg width="25" height="24" viewBox="0 0 25 24" fill="none" xmlns="http://www.w3.org/2000/svg">
<path d="M6.68359 9H5.18359C4.52055 9 3.88467 8.73661 3.41583 8.26777C2.94699 7.79893 2.68359 7.16304 2.68359 6.5C2.68359 5.83696 2.94699 5.20107 3.41583 4.73223C3.88467 4.26339 4.52055 4 5.18359 4H6.68359" stroke="#F59E0B" stroke-width="2" stroke-linecap="round" stroke-linejoin="round"/>
<path d="M18.6836 9H20.1836C20.8466 9 21.4825 8.73661 21.9514 8.26777C22.4202 7.79893 22.6836 7.16304 22.6836 6.5C22.6836 5.83696 22.4202 5.20107 21.9514 4.73223C21.4825 4.26339 20.8466 4 20.1836 4H18.6836" stroke="#F59E0B" stroke-width="2" stroke-linecap="round" stroke-linejoin="round"/>
<path d="M4.68359 22H20.6836" stroke="#F59E0B" stroke-width="2" stroke-linecap="round" stroke-linejoin="round"/>
<path d="M10.6836 14.6599V16.9999C10.6836 17.5499 10.2136 17.9799 9.71359 18.2099C8.53359 18.7499 7.68359 20.2399 7.68359 21.9999" stroke="#F59E0B" stroke-width="2" stroke-linecap="round" stroke-linejoin="round"/>
<path d="M14.6836 14.6599V16.9999C14.6836 17.5499 15.1536 17.9799 15.6536 18.2099C16.8336 18.7499 17.6836 20.2399 17.6836 21.9999" stroke="#F59E0B" stroke-width="2" stroke-linecap="round" stroke-linejoin="round"/>
<path d="M18.6836 2H6.68359V9C6.68359 10.5913 7.31573 12.1174 8.44095 13.2426C9.56617 14.3679 11.0923 15 12.6836 15C14.2749 15 15.801 14.3679 16.9262 13.2426C18.0515 12.1174 18.6836 10.5913 18.6836 9V2Z" stroke="#F59E0B" stroke-width="2" stroke-linecap="round" stroke-linejoin="round"/>
</svg>
