<svg width="24" height="25" viewBox="0 0 24 25" fill="none" xmlns="http://www.w3.org/2000/svg">
<path d="M6.5044 12.7916C6.00308 12.7916 5.59668 13.1979 5.59668 13.6992V18.0958C5.59668 18.5972 6.00308 19.0035 6.5044 19.0035C7.00571 19.0035 7.4121 18.5972 7.4121 18.0958V13.6992C7.4121 13.1979 7.00571 12.7916 6.5044 12.7916Z" fill="#787486"/>
<path d="M10.9004 7.29608C10.3991 7.29608 9.99268 7.70247 9.99268 8.20379V18.0961C9.99268 18.5974 10.3991 19.0038 10.9004 19.0038C11.4017 19.0038 11.8081 18.5974 11.8081 18.0961V8.20379C11.8081 7.70247 11.4017 7.29608 10.9004 7.29608Z" fill="#787486"/>
<path d="M15.2973 9.49384C14.796 9.49384 14.3896 9.90023 14.3896 10.4015V18.0956C14.3896 18.5968 14.796 19.0033 15.2973 19.0033C15.7986 19.0033 16.205 18.5968 16.205 18.0956V10.4015C16.205 9.90023 15.7986 9.49384 15.2973 9.49384Z" fill="#787486"/>
<path d="M19.6939 5.09747C19.1926 5.09747 18.7861 5.50388 18.7861 6.00519V18.0957C18.7861 18.5971 19.1926 19.0034 19.6939 19.0034C20.1952 19.0034 20.6016 18.5971 20.6016 18.0957V6.00519C20.6016 5.50388 20.1952 5.09747 19.6939 5.09747Z" fill="#787486"/>
<path d="M2.03049 1.71588C1.52528 1.71588 1.11572 2.12544 1.11572 2.63065V15.9897C1.1157 17.4997 1.11568 18.7252 1.24555 19.6911C1.38084 20.6974 1.67199 21.5577 2.35696 22.2427C3.04192 22.9276 3.90211 23.2188 4.90844 23.354C5.87432 23.484 7.09988 23.484 8.60975 23.4838H21.9689C22.4741 23.4838 22.8837 23.0743 22.8837 22.5691C22.8837 22.0639 22.4741 21.6543 21.9689 21.6543H8.67664C7.08423 21.6543 5.98201 21.6524 5.15222 21.5408C4.3488 21.4328 3.93902 21.2373 3.65064 20.949C3.36225 20.6606 3.16679 20.2508 3.05877 19.4474C2.94721 18.6176 2.94526 17.5154 2.94526 15.923V2.63065C2.94526 2.12544 2.5357 1.71588 2.03049 1.71588Z" fill="#787486"/>
</svg>
