<svg width="24" height="25" viewBox="0 0 24 25" fill="none" xmlns="http://www.w3.org/2000/svg">
<path d="M9.16006 11.67C9.06006 11.66 8.94006 11.66 8.83006 11.67C6.45006 11.59 4.56006 9.63999 4.56006 7.23999C4.56006 4.78999 6.54006 2.79999 9.00006 2.79999C11.4501 2.79999 13.4401 4.78999 13.4401 7.23999C13.4301 9.63999 11.5401 11.59 9.16006 11.67Z" stroke="#787486" stroke-width="1.5" stroke-linecap="round" stroke-linejoin="round"/>
<path d="M16.4098 4.79999C18.3498 4.79999 19.9098 6.36999 19.9098 8.29999C19.9098 10.19 18.4098 11.73 16.5398 11.8C16.4598 11.79 16.3698 11.79 16.2798 11.8" stroke="#787486" stroke-width="1.5" stroke-linecap="round" stroke-linejoin="round"/>
<path d="M4.16021 15.36C1.74021 16.98 1.74021 19.62 4.16021 21.23C6.91021 23.07 11.4202 23.07 14.1702 21.23C16.5902 19.61 16.5902 16.97 14.1702 15.36C11.4302 13.53 6.92021 13.53 4.16021 15.36Z" stroke="#787486" stroke-width="1.5" stroke-linecap="round" stroke-linejoin="round"/>
<path d="M18.3398 20.8C19.0598 20.65 19.7398 20.36 20.2998 19.93C21.8598 18.76 21.8598 16.83 20.2998 15.66C19.7498 15.24 19.0798 14.96 18.3698 14.8" stroke="#787486" stroke-width="1.5" stroke-linecap="round" stroke-linejoin="round"/>
</svg>
