<svg width="16" height="16" viewBox="0 0 16 16" fill="none" xmlns="http://www.w3.org/2000/svg">
<path d="M1.90693 1.52232C3.21949 0.431902 4.51221 0.795676 5.26919 1.19554C5.6196 1.38064 5.57258 1.84855 5.22821 2.04474C4.66705 2.36444 3.89444 2.83463 3.35537 3.28245C2.8163 3.73028 2.21145 4.40442 1.79347 4.89814C1.53697 5.20112 1.07073 5.15957 0.955646 4.779C0.707021 3.95682 0.594347 2.61272 1.90693 1.52232Z" fill="#F29268"/>
<path d="M14.0931 1.52232C12.7805 0.431902 11.4878 0.795676 10.7309 1.19554C10.3805 1.38064 10.4274 1.84855 10.7718 2.04474C11.3329 2.36444 12.1056 2.83463 12.6446 3.28245C13.1837 3.73028 13.7885 4.40442 14.2065 4.89814C14.463 5.20112 14.9293 5.15957 15.0444 4.779C15.293 3.95682 15.4057 2.61272 14.0931 1.52232Z" fill="#F29268"/>
<path d="M7.58136 5.39038C7.91692 5.39038 8.18892 5.6637 8.18892 6.00087V8.47247L9.4734 9.11775C9.77348 9.26855 9.89516 9.63527 9.74508 9.93679C9.595 10.2384 9.23004 10.3606 8.92988 10.2098L7.32295 9.40255C7.2902 9.38703 7.25905 9.36871 7.22981 9.34783C7.09253 9.24983 6.99752 9.09599 6.97764 8.91919C6.97452 8.89207 6.9732 8.86463 6.97376 8.83711V6.00087C6.97376 5.6637 7.24579 5.39038 7.58136 5.39038Z" fill="#F29268"/>
<path fill-rule="evenodd" clip-rule="evenodd" d="M8.00836 2.54144C4.54079 2.54144 1.72978 5.36583 1.72978 8.84984C1.72978 10.3818 2.2732 11.7861 3.17691 12.8789L1.88943 14.1626C1.65144 14.4 1.65144 14.7847 1.88943 15.022C2.12743 15.2594 2.5133 15.2594 2.75129 15.022L4.03907 13.738C5.12078 14.6258 6.50266 15.1583 8.00836 15.1583C9.54796 15.1583 10.9582 14.6014 12.0504 13.6773L13.399 15.022C13.637 15.2594 14.0228 15.2594 14.2608 15.022C14.4988 14.7847 14.4988 14.4 14.2608 14.1626L12.8996 12.8054C13.7674 11.7234 14.2869 10.3476 14.2869 8.84984C14.2869 5.36583 11.4759 2.54144 8.00836 2.54144ZM2.94498 8.84984C2.94498 6.04015 5.21193 3.76243 8.00836 3.76243C10.8048 3.76243 13.0717 6.04015 13.0717 8.84984C13.0717 11.6596 10.8048 13.9374 8.00836 13.9374C5.21193 13.9374 2.94498 11.6596 2.94498 8.84984Z" fill="#F29268"/>
</svg>
