<svg width="49" height="48" viewBox="0 0 49 48" fill="none" xmlns="http://www.w3.org/2000/svg">
<path d="M0.5 24C0.5 10.7452 11.2452 0 24.5 0C37.7548 0 48.5 10.7452 48.5 24C48.5 37.2548 37.7548 48 24.5 48C11.2452 48 0.5 37.2548 0.5 24Z" fill="#EFF6FF"/>
<path d="M24.5 34C30.0228 34 34.5 29.5228 34.5 24C34.5 18.4772 30.0228 14 24.5 14C18.9772 14 14.5 18.4772 14.5 24C14.5 29.5228 18.9772 34 24.5 34Z" stroke="#2563EB" stroke-width="2" stroke-linecap="round" stroke-linejoin="round"/>
<path d="M24.5 30C27.8137 30 30.5 27.3137 30.5 24C30.5 20.6863 27.8137 18 24.5 18C21.1863 18 18.5 20.6863 18.5 24C18.5 27.3137 21.1863 30 24.5 30Z" stroke="#2563EB" stroke-width="2" stroke-linecap="round" stroke-linejoin="round"/>
<path d="M24.5 26C25.6046 26 26.5 25.1046 26.5 24C26.5 22.8954 25.6046 22 24.5 22C23.3954 22 22.5 22.8954 22.5 24C22.5 25.1046 23.3954 26 24.5 26Z" stroke="#2563EB" stroke-width="2" stroke-linecap="round" stroke-linejoin="round"/>
</svg>
